<?xml version="1.0" encoding="UTF-8"?><svg xmlns="http://www.w3.org/2000/svg" viewBox="0 0 174.73 189"><g id="a"/><g id="b"><g id="c"><g><polygon points="80.8 35.68 87.47 35.01 87.47 25.68 80.8 26.34 80.8 35.68"/><polygon points="89.25 35.01 95.92 35.68 95.92 26.34 89.25 25.68 89.25 35.01"/><path d="M97.7,25.01l7.34,3.33-3.63-4.22-11.04-5.78-1.11-3.33h-.89v-6.67h-.67v6.67h-.67l-1.33,3.33-9.34,4.67-4,5.34,8-4s10.67-.67,17.34,.67Z"/><polygon points="78.41 151.15 88.84 151.15 83.64 139.57 78.41 151.15"/><path d="M87.36,0C39.19,0,0,39.19,0,87.36c0,25.67,11.13,48.79,28.82,64.79v-22.22h17.65v4.63h-13v7.92h11.21v4.63h-11.21v8.95c12.46,9.8,27.65,16.28,44.21,18.12l7.98,13.83c.75,1.31,2.64,1.31,3.39,0l7.98-13.83c14.46-1.6,27.87-6.75,39.33-14.55h-10.26v-29.64h22.27v4.58h-17.61v7.59h11.21v4.63h-11.21v8.2h11.81c19.61-16.03,32.14-40.4,32.14-67.65C174.73,39.19,135.53,0,87.36,0ZM29.12,119.71h-2.8v-.49c.71-.71,1.66-1.58,2.8-2.44v2.93Zm4.25,0h-2.8v-3.94c.86-.55,1.8-1.07,2.8-1.5v5.44Zm4.25,0h-2.8v-5.98c.9-.29,1.83-.5,2.8-.6v6.58Zm4.25,0h-2.8v-6.65c.95,.01,1.88,.14,2.8,.38v6.27Zm4.25,0h-2.8v-5.82c.95,.36,1.88,.85,2.8,1.45v4.37Zm21.91,39.94h-17.87v-29.64h4.65v25h13.22v4.63Zm-20.46-39.94v-3.31c.95,.76,1.89,1.65,2.8,2.67v.64h-2.8Zm45.09,39.94l-2.02-4.5h-14.03l-2.02,4.5h-5.04l13.94-30.24h.28l13.94,30.24h-5.04Zm11.04-56.61l1.33,20.67-33.34-10.67,1.33-24.67,30.68,14.67Zm-29.34-31.34l.67-12c8-1.33,15.78-1.56,26.01,0l1.33,22.67-28.01-10.67Zm42.92,87.95l-7.98-11.47h-3.64v11.47h-4.65l-.02-29.64h9.21c5.52,0,10.04,4.25,10.04,9.52,0,3.82-2.46,7.15-5.86,8.25l8.62,11.86h-5.72Zm43.86-36.81h-5.42v-3.24h-7.34v-32.23h-12.67v32.06h-3.75v-23.5h-14.26v18.45l-6.48,1.14v6.2h-3.32l-4.2-62.02,3.61-2.53c.25-.17,.39-.45,.39-.76v-8.25c0-.27-.19-.5-.46-.55-16.68-3.17-28.34-1.61-35.04-.93-.04,0-.06-.05-.02-.08,.85-.48,5.23-2.62,16.18-2.99,9.11-.31,15.78,1.37,17.55,1.93,.16,.05,.3-.13,.21-.28-.83-1.21-2.47-2.45-2.47-2.45v-3.21c0-.34-.24-.64-.56-.72-16.4-3.97-28.07-.72-30.33,0-.24,.08-.4,.29-.4,.54v4.93c-1.6,.53-3.42,1.48-4.08,1.83-.16,.09-.26,.25-.26,.43v9.74c0,.19,.09,.36,.24,.47l4.09,2.87-4.13,60.02h-7.2v-2h.67v-.67h-.67l-.67-10-1.33-2-1.33,2-.55,10h-.78v.67h.78v2h-4.11c-14-18.01-29.48,0-29.48,0h-2.07v-21.06h-4.09v-14.76l-1.04,1.8-1.33,12.73h-6.03v14.98h-.45c-4.07-8.82-6.06-14.92-7-24.76-.15-1.62-.04-6.46,.03-7.37,.07-1.02,.16-2.04,.27-3.05,1.3-12.25,5.18-23.75,11.09-33.93l63.44-11.83v3.88l2.67-.67v-8.67l-2.67,.67v3.28l-38.54-13.89C51.84,7.16,68.93,1.33,87.36,1.33s36.04,6,50.17,16.19l-37.17,13.43v-3.28l-2.67-.67v8.67l2.67,.67v-3.88l61.22,11.45c6.45,10.98,10.54,23.51,11.55,36.89,.08,1.06,.06,5.35-.02,6.39-1.15,15.67-4.16,26.61-11.98,35.63Z"/><path d="M110.31,134.62h-4.67v9.69h4.67c2.79,.02,5.13-2.24,5.13-4.89s-2.37-4.8-5.13-4.8Z"/></g></g></g></svg>